<?xml version="1.0" encoding="iso-8859-1"?>
<!-- Generator: Adobe Illustrator 19.0.0, SVG Export Plug-In . SVG Version: 6.00 Build 0)  -->
<svg version="1.1" id="Layer_1" xmlns="http://www.w3.org/2000/svg" xmlns:xlink="http://www.w3.org/1999/xlink" x="0px" y="0px"
	 viewBox="0 0 512.001 512.001" style="enable-background:new 0 0 512.001 512.001;" xml:space="preserve">
<path style="fill:#73C6BE;" d="M0,428.314c23.276,0,23.276-22.539,46.553-22.539s23.276,22.539,46.553,22.539
	c23.273,0,23.273-22.539,46.545-22.539c23.273,0,23.273,22.539,46.547,22.539c23.272,0,23.272-22.539,46.545-22.539
	c23.272,0,23.272,22.539,46.544,22.539c23.27,0,23.27-22.539,46.538-22.539c23.272,0,23.272,22.539,46.544,22.539
	c23.272,0,23.272-22.539,46.545-22.539c23.272,0,23.272,22.539,46.544,22.539c23.271,0,23.271-22.539,46.542-22.539v-54.802
	c-23.271,0-23.271,22.539-46.542,22.539c-23.272,0-23.272-22.539-46.544-22.539c-23.272,0-23.272,22.539-46.545,22.539
	c-23.272,0-23.272-22.539-46.544-22.539c-23.27,0-23.27,22.539-46.538,22.539c-23.272,0-23.272-22.539-46.544-22.539
	s-23.272,22.539-46.545,22.539s-23.273-22.539-46.547-22.539s-23.273,22.539-46.545,22.539c-23.276,0-23.276-22.539-46.553-22.539
	S23.276,373.512,0,373.512"/>
<path style="fill:#F9E178;" d="M378.574,156.319v71.4c0,38.321-19.907,71.993-49.952,91.225v86.944
	c-0.889-0.083-26.073,49.62-49.335,49.62c-23.275,0-69.824-11.066-93.098-11.066c-2.822,0-5.312-16.465-7.529-17.058V285.343
	c-10.517-16.694-16.599-36.447-16.599-57.623V93.208c0-12.141,9.829-21.97,21.97-21.97c12.129,0,21.958,9.829,21.97,21.958V58.432
	c0-6.059,2.466-11.56,6.438-15.532c3.035-3.035,6.96-5.193,11.347-6.035c1.352-0.261,2.751-0.403,4.185-0.403
	c12.129,0,21.97,9.841,21.97,21.97v-7.576c0-6.071,2.466-11.56,6.438-15.532c3.035-3.047,6.96-5.193,11.347-6.035
	c1.352-0.261,2.751-0.403,4.185-0.403c12.141,0,21.97,9.841,21.97,21.97v23.18c0-10.707,7.659-19.635,17.785-21.579
	c1.352-0.261,2.751-0.403,4.185-0.403c12.141,0,21.97,9.841,21.97,21.982v82.214c0.024-5.596,2.288-10.659,5.976-14.335
	c3.106-3.106,7.221-5.217,11.809-5.786c0.842-0.119,1.719-0.178,2.597-0.178C369.456,135.951,378.574,145.068,378.574,156.319z"/>
<g>
	<path style="fill:#DDC662;" d="M267.727,29.289v117.546c0,4.909-3.984,8.892-8.892,8.892s-8.892-3.984-8.892-8.892V50.856
		c0-6.071,2.466-11.56,6.438-15.532C259.415,32.277,263.34,30.131,267.727,29.289z"/>
	<path style="fill:#DDC662;" d="M223.786,36.864v129.557c0,4.92-3.984,8.892-8.892,8.892s-8.892-3.972-8.892-8.892V58.431
		c0-6.059,2.466-11.56,6.438-15.532C215.475,39.865,219.399,37.707,223.786,36.864z"/>
	<path style="fill:#DDC662;" d="M311.667,52.457v109.97c0,4.92-3.972,8.892-8.892,8.892c-4.909,0-8.892-3.972-8.892-8.892V74.036
		C293.882,63.329,301.542,54.401,311.667,52.457z"/>
	<path style="fill:#DDC662;" d="M355.608,136.127v84.431c0,4.909-3.984,8.892-8.892,8.892c-13.422,0-26.037,5.229-35.511,14.714
		c-9.497,9.485-14.714,22.101-14.714,35.522c0,4.909-3.984,8.892-8.892,8.892s-8.892-3.984-8.892-8.892
		c0-18.176,7.067-35.25,19.919-48.09c10.718-10.73,24.389-17.441,39.198-19.362v-55.987c0.024-5.596,2.288-10.659,5.976-14.335
		C346.905,138.808,351.019,136.697,355.608,136.127z"/>
</g>
<path style="fill:#88E2DB;" d="M0,483.116c23.276,0,23.276-22.539,46.553-22.539s23.276,22.539,46.553,22.539
	c23.273,0,23.273-22.539,46.545-22.539c23.273,0,23.273,22.539,46.547,22.539c23.272,0,23.272-22.539,46.545-22.539
	c23.272,0,23.272,22.539,46.544,22.539c23.27,0,23.27-22.539,46.538-22.539c23.272,0,23.272,22.539,46.544,22.539
	c23.272,0,23.272-22.539,46.545-22.539c23.272,0,23.272,22.539,46.544,22.539c23.271,0,23.271-22.539,46.542-22.539v-54.801
	c-23.271,0-23.271,22.539-46.542,22.539c-23.272,0-23.272-22.539-46.544-22.539c-23.272,0-23.272,22.539-46.545,22.539
	c-23.272,0-23.272-22.539-46.544-22.539c-23.27,0-23.27,22.539-46.538,22.539c-23.272,0-23.272-22.539-46.544-22.539
	s-23.272,22.539-46.545,22.539s-23.273-22.539-46.547-22.539s-23.273,22.539-46.545,22.539c-23.276,0-23.276-22.539-46.553-22.539
	S23.276,428.314,0,428.314"/>
<path style="fill:#DDC662;" d="M196.447,299.003l8.041-0.16c5.926-0.117,8.505-7.562,3.904-11.299
	c-17.6-14.299-28.408-35.853-28.542-59.191c-0.001-0.211-0.002-0.423-0.002-0.634V93.205c0-10.083,0.86-18.551,10.111-21.139
	c-3.723-1.042-7.816-1.209-12.119,0.101c-9.497,2.893-15.778,11.948-15.778,21.875v133.676c0,21.176,6.082,40.929,16.599,57.623
	v142.042c2.217,0.593,10.635,0.925,13.457,0.925c2.172,0,4.14-0.197,5.944-0.553c-0.554-0.109-1.094-0.232-1.616-0.371V299.003z"/>
<g>
</g>
<g>
</g>
<g>
</g>
<g>
</g>
<g>
</g>
<g>
</g>
<g>
</g>
<g>
</g>
<g>
</g>
<g>
</g>
<g>
</g>
<g>
</g>
<g>
</g>
<g>
</g>
<g>
</g>
</svg>
