<?xml version="1.0" standalone="no"?>
<!DOCTYPE svg PUBLIC "-//W3C//DTD SVG 20010904//EN"
 "http://www.w3.org/TR/2001/REC-SVG-20010904/DTD/svg10.dtd">
<svg version="1.0" xmlns="http://www.w3.org/2000/svg"
 width="1601.000000pt" height="1601.000000pt" viewBox="0 0 1601.000000 1601.000000"
 preserveAspectRatio="xMidYMid meet">
<metadata>
Created by potrace 1.11, written by Peter Selinger 2001-2013
</metadata>
<g transform="translate(0.000000,1601.000000) scale(0.100000,-0.100000)"
fill="#000000" stroke="none">
<path d="M13269 13746 c-2 -2 -98 -6 -214 -9 -115 -4 -219 -8 -230 -10 -11 -3
-47 -8 -80 -11 -33 -4 -71 -9 -85 -11 -34 -6 -77 -13 -125 -20 -32 -5 -166
-31 -255 -50 -313 -67 -793 -259 -1050 -420 l-55 -35 60 -1 c33 0 71 -2 85 -5
60 -10 165 -28 170 -29 112 -29 226 -77 335 -142 56 -34 98 -53 110 -50 11 3
85 31 165 62 160 62 810 281 1015 341 72 21 185 57 252 79 104 35 124 39 127
26 6 -21 33 -202 41 -271 3 -30 8 -66 10 -80 2 -14 7 -50 10 -80 3 -30 8 -66
10 -80 2 -14 7 -63 10 -110 4 -47 8 -96 10 -110 3 -22 8 -98 21 -300 30 -492
25 -1240 -11 -1690 -3 -30 -7 -93 -10 -140 -3 -47 -7 -106 -10 -132 -3 -27 -7
-70 -10 -98 -22 -221 -38 -364 -50 -440 -2 -14 -11 -79 -20 -145 -20 -151 -23
-170 -41 -280 -8 -49 -17 -110 -20 -135 -4 -25 -9 -48 -13 -52 -6 -7 -73 24
-153 71 -15 9 -121 70 -235 135 -115 66 -345 200 -513 299 -303 179 -357 210
-395 231 -23 13 -243 144 -685 406 -397 237 -367 219 -436 259 -33 18 -75 44
-94 56 -19 12 -147 89 -285 170 -137 82 -347 206 -465 276 l-215 128 -50 -29
c-27 -15 -67 -38 -87 -49 -98 -54 -117 -66 -178 -107 -127 -85 -253 -204 -374
-354 -103 -128 -206 -346 -246 -524 -54 -242 -48 -467 21 -721 10 -38 28 -95
40 -125 11 -30 25 -68 32 -85 16 -43 124 -252 137 -265 3 -3 27 -39 55 -80 27
-41 93 -131 146 -200 219 -284 354 -516 454 -775 46 -118 102 -292 110 -337 3
-16 12 -61 21 -101 15 -73 27 -152 40 -262 10 -79 10 -418 2 -521 -48 -537
-266 -1164 -596 -1707 -41 -67 -41 -68 -12 -47 32 23 189 177 255 251 102 113
215 258 305 390 l45 66 70 -19 c38 -11 122 -35 185 -54 63 -20 122 -37 130
-39 8 -2 15 -4 15 -5 0 -1 7 -3 15 -5 133 -30 1162 -389 1259 -439 31 -17 29
-19 89 94 158 297 327 679 452 1026 59 162 83 238 84 263 1 13 -173 136 -374
263 -346 219 -838 468 -1230 622 -203 80 -183 66 -186 127 -4 71 -13 168 -18
199 -3 14 -7 47 -11 75 -26 203 -114 508 -215 738 -93 215 -176 363 -352 626
-60 90 -126 198 -148 240 -36 72 -114 281 -105 281 2 0 -1 15 -6 33 -11 37
-14 206 -5 257 21 110 64 212 119 285 36 48 119 135 128 135 3 0 59 -30 125
-66 485 -269 1168 -586 1664 -771 393 -146 903 -304 1090 -336 14 -3 57 -12
95 -21 91 -22 100 -24 201 -41 122 -22 153 -27 209 -34 35 -4 50 -11 50 -21 0
-8 -12 -78 -28 -155 -15 -77 -30 -151 -33 -165 -3 -14 -12 -54 -20 -90 -9 -36
-18 -76 -20 -90 -6 -30 -38 -167 -65 -280 -12 -47 -22 -92 -24 -100 -17 -79
-119 -440 -191 -675 -111 -360 -324 -964 -419 -1185 -13 -30 -60 -140 -104
-245 -43 -104 -93 -219 -109 -255 -17 -36 -48 -105 -70 -155 -129 -291 -405
-842 -601 -1198 -44 -82 -81 -152 -81 -156 0 -20 -40 -39 -90 -44 -162 -14
-335 -101 -465 -234 -65 -67 -70 -78 -41 -97 13 -8 56 -53 95 -99 136 -160
252 -225 416 -233 154 -8 183 -12 292 -44 146 -44 370 -168 458 -253 14 -13
-15 2 -35 19 -58 49 -286 137 -389 150 -25 3 -62 9 -81 13 -19 4 -80 8 -135
10 -376 9 -368 7 -589 173 -156 117 -300 175 -496 199 -52 6 -234 12 -405 14
-170 1 -319 4 -330 7 -11 3 -40 9 -65 13 -74 12 -79 13 -154 37 -93 29 -211
89 -261 133 l-40 35 46 -25 c57 -31 146 -62 202 -70 23 -4 44 -8 48 -11 36
-22 472 -22 542 1 7 2 30 6 52 9 46 6 94 15 115 21 16 5 149 17 190 18 50 1
172 -15 216 -28 l44 -13 40 57 c115 170 316 313 537 381 37 12 74 23 80 25 7
2 57 94 112 204 l100 200 -45 17 -45 17 -142 -71 c-327 -163 -681 -277 -1017
-326 -204 -31 -501 -27 -680 8 -257 50 -413 105 -1015 359 -176 74 -394 162
-485 196 -91 35 -172 66 -180 70 -28 14 -444 149 -586 190 -177 51 -473 123
-624 151 -63 12 -124 24 -135 26 -34 8 -238 42 -280 48 -22 4 -51 8 -65 11
-14 2 -47 7 -75 10 -69 8 -135 16 -165 21 -14 2 -52 6 -85 9 -33 3 -76 8 -95
10 -19 2 -75 7 -125 10 -49 4 -106 9 -125 10 -19 2 -84 6 -145 10 -112 5 -130
3 -470 -70 -11 -3 -78 -19 -148 -36 -71 -17 -136 -32 -145 -34 -126 -27 -565
-156 -818 -240 -191 -64 -518 -184 -589 -215 -11 -5 -65 -28 -120 -51 -104
-43 -111 -46 -285 -124 -98 -44 -400 -192 -409 -201 -6 -5 9 -9 202 -49 98
-20 201 -44 230 -51 29 -8 86 -24 127 -35 182 -49 530 -175 716 -259 70 -32
347 -171 359 -180 6 -4 42 -25 80 -45 88 -48 275 -165 430 -268 164 -110 429
-299 433 -309 2 -4 8 -8 12 -8 5 0 87 -55 182 -123 145 -103 352 -243 508
-342 157 -101 516 -293 660 -354 408 -173 664 -256 1080 -350 47 -11 103 -22
125 -26 22 -4 45 -8 50 -9 6 -2 33 -7 60 -11 28 -5 52 -10 55 -10 3 -1 28 -5
55 -10 28 -4 59 -9 69 -11 11 -2 56 -8 100 -14 45 -6 95 -13 111 -15 61 -9
202 -25 270 -30 39 -4 87 -8 108 -11 217 -24 926 -24 1207 1 25 3 79 7 120 10
73 5 119 10 210 20 25 3 65 7 90 9 47 4 127 14 170 22 14 2 48 6 75 9 28 4 61
8 75 10 14 2 45 6 70 10 25 3 56 8 70 10 14 3 39 7 55 9 51 8 328 56 355 61
14 3 40 8 59 11 18 3 43 8 55 10 11 3 32 7 46 9 14 2 36 7 50 10 14 2 50 10
80 16 30 6 105 22 165 36 61 14 121 27 135 29 37 7 485 117 625 154 302 79
689 195 1060 316 247 81 558 187 615 209 19 8 132 50 250 94 118 43 269 100
335 126 66 26 149 58 185 71 36 14 73 29 83 35 9 5 46 20 82 34 36 13 80 31
98 38 17 8 104 45 192 82 322 136 828 365 821 372 -5 5 -60 10 -186 18 -58 4
-123 8 -145 10 -22 2 -80 6 -130 9 -49 4 -101 8 -115 10 -14 3 -61 7 -105 10
-44 4 -96 8 -115 10 -19 3 -62 7 -95 11 -33 3 -97 10 -142 15 -216 26 -260 31
-283 35 -14 2 -47 6 -75 10 -47 5 -351 51 -405 60 -269 48 -327 58 -335 60 -5
1 -28 5 -50 9 -104 20 -189 37 -194 40 -3 2 -24 7 -46 10 -22 4 -119 25 -215
47 -96 22 -183 42 -193 44 -10 2 -27 7 -37 10 -10 3 -29 8 -41 10 -45 9 -296
79 -509 142 -164 49 -585 186 -593 193 -10 9 103 189 118 190 6 0 75 -25 155
-55 80 -30 150 -55 155 -55 6 0 21 -6 35 -13 71 -37 705 -235 935 -293 181
-45 421 -99 477 -108 21 -3 57 -10 80 -15 64 -14 401 -69 469 -76 15 -2 39 -5
55 -9 16 -3 54 -8 84 -11 30 -3 66 -8 80 -10 14 -3 53 -7 88 -10 35 -4 71 -8
80 -10 9 -1 53 -6 97 -10 44 -4 90 -8 102 -10 12 -2 61 -6 110 -10 48 -3 106
-8 128 -10 22 -2 85 -7 140 -10 55 -3 123 -8 150 -11 59 -6 54 -1 -60 61 -38
21 -87 49 -107 62 -21 13 -39 23 -41 23 -14 0 -556 325 -782 469 -319 203
-639 426 -865 602 -128 100 -193 154 -436 364 -76 66 -161 138 -189 160 -27
22 -55 45 -62 51 -7 7 -57 47 -113 90 -55 43 -100 82 -100 86 0 4 37 91 83
195 195 440 369 912 511 1388 76 258 167 609 202 780 1 6 7 37 15 70 15 72 12
56 38 185 11 58 23 121 26 140 3 19 8 42 10 50 2 8 7 35 10 60 4 25 10 63 15
85 5 22 11 63 15 90 10 78 16 119 20 135 2 8 7 42 11 75 3 33 8 67 9 75 2 9 6
43 10 75 4 33 9 72 11 88 2 15 7 51 9 80 3 28 7 72 10 97 6 60 13 128 21 225
36 422 40 1171 9 1590 -7 91 -15 186 -20 230 -3 22 -7 65 -10 95 -9 89 -16
153 -20 180 -2 14 -7 50 -10 80 -3 30 -17 125 -31 210 -14 85 -27 171 -30 190
-3 19 -9 51 -14 70 -9 34 -11 43 -25 125 -4 22 -13 65 -20 95 -8 30 -16 66
-18 80 -3 14 -24 96 -47 183 -23 88 -40 160 -38 162 2 2 39 13 83 25 137 38
402 136 393 145 -5 5 -122 28 -208 40 -19 3 -44 7 -55 10 -11 2 -47 7 -80 10
-33 4 -87 10 -120 15 -33 4 -102 8 -154 9 -52 1 -98 4 -101 6 -4 3 -9 3 -11 1z"/>
<path d="M10975 13003 c-63 -9 -192 -46 -255 -72 -94 -41 -173 -94 -249 -170
-149 -147 -223 -326 -216 -521 9 -291 232 -506 603 -585 68 -14 242 -30 242
-22 0 2 -42 36 -92 75 -222 170 -349 328 -350 437 -2 83 74 190 164 233 63 29
98 36 199 35 251 -1 467 -170 510 -398 22 -118 -3 -303 -56 -403 -95 -182
-329 -262 -674 -229 -73 7 -299 50 -356 67 -171 53 -358 112 -372 117 -17 7
-17 5 1 -21 28 -43 63 -83 151 -172 103 -103 169 -158 275 -227 330 -213 651
-279 994 -202 133 29 309 137 420 256 97 105 203 295 221 399 3 18 8 37 11 41
12 20 35 182 38 269 18 486 -261 887 -725 1043 -41 14 -99 31 -129 37 -55 12
-299 21 -355 13z"/>
<path d="M8597 8622 c-10 -10 -17 -21 -17 -25 0 -3 -22 -41 -48 -84 -26 -43
-63 -105 -81 -138 -87 -156 -329 -534 -461 -720 -88 -123 -305 -410 -364 -480
-14 -16 -29 -35 -33 -40 -16 -21 -200 -232 -253 -290 -64 -69 -407 -413 -495
-496 -66 -61 -273 -241 -349 -304 -27 -22 -54 -45 -60 -50 -6 -6 -22 -19 -36
-28 -82 -57 166 37 360 136 l155 80 350 1 c304 1 534 -5 695 -19 25 -2 79 -7
120 -10 41 -4 89 -8 105 -10 17 -2 53 -7 80 -9 70 -8 125 -15 160 -21 17 -2
50 -7 75 -10 25 -3 56 -7 70 -10 14 -3 45 -8 70 -11 138 -18 428 -81 720 -157
107 -27 205 -52 217 -54 26 -6 34 8 96 174 78 207 123 403 154 663 10 83 10
477 0 550 -4 30 -10 73 -13 95 -21 164 -78 403 -101 422 -11 9 -97 32 -178 49
-5 1 -37 8 -70 17 -33 8 -98 22 -145 31 -47 9 -96 18 -110 21 -13 2 -42 7 -65
10 -22 3 -47 8 -55 10 -19 5 -60 12 -130 20 -30 4 -67 9 -82 11 -29 4 -57 7
-193 20 -116 10 -155 13 -207 13 l-47 1 23 63 c46 123 75 214 99 312 23 91 48
207 48 220 0 2 4 18 9 35 10 35 9 36 -13 12z"/>
<path d="M7727 7984 c-1 -1 -45 -4 -97 -8 -109 -8 -162 -12 -240 -21 -120 -13
-150 -17 -270 -37 -69 -11 -138 -22 -155 -25 -61 -10 -263 -55 -355 -79 -680
-178 -1289 -484 -1795 -903 -190 -157 -396 -364 -549 -551 -21 -25 -45 -54
-54 -65 -154 -188 -372 -569 -397 -698 -2 -9 -7 -22 -10 -27 -11 -18 19 -11
106 24 248 100 916 303 1129 342 14 3 45 10 70 15 25 6 56 13 70 15 14 3 63
14 110 24 47 10 101 21 120 25 29 4 60 11 100 20 3 1 30 5 60 10 30 5 57 9 60
10 3 0 26 4 51 8 25 4 57 10 70 12 13 2 42 6 64 10 22 3 67 10 100 15 65 10
149 20 205 25 19 2 51 6 70 8 19 3 71 8 115 12 44 4 87 11 95 15 8 5 107 102
220 217 184 187 274 284 396 423 21 25 42 47 45 50 17 16 262 316 351 430 156
201 447 613 488 691 9 16 2 17 -81 16 -50 -1 -91 -3 -92 -3z"/>
<path d="M400 5778 c-165 -63 -300 -224 -368 -438 -36 -114 -38 -105 36 -179
96 -96 199 -161 338 -211 212 -77 402 -104 729 -103 232 0 471 21 678 58 15 3
55 10 90 15 84 15 253 49 302 62 22 6 45 11 50 12 140 29 615 171 720 216 11
4 47 18 80 30 33 13 74 29 90 36 17 7 71 29 120 49 119 50 355 163 355 170 0
4 -22 4 -50 1 -27 -3 -71 -8 -97 -11 -74 -8 -132 -15 -162 -19 -35 -6 -104
-14 -171 -21 -65 -6 -145 -15 -180 -20 -14 -2 -68 -7 -120 -10 -52 -4 -111 -8
-130 -10 -213 -17 -630 -23 -805 -10 -49 3 -112 8 -140 9 -72 5 -186 17 -215
22 -14 2 -45 7 -70 9 -25 3 -67 10 -95 15 -27 5 -66 12 -85 15 -163 27 -448
116 -590 184 -104 50 -132 66 -197 114 -28 20 -52 37 -54 36 -2 0 -29 -9 -59
-21z"/>
</g>
</svg>
